<svg width="40" height="24" viewBox="0 0 40 24" fill="none" xmlns="http://www.w3.org/2000/svg">
<g opacity="0.7">
<path d="M16.6305 10.0829C17.3106 9.03421 17.699 7.78312 17.6766 6.44178C17.6164 2.8524 14.6007 4.14578e-08 10.9765 4.14578e-08H0.858186C0.384264 4.14578e-08 0 0.380632 0 0.850075V22.8911C0 23.3606 0.384264 23.7412 0.858186 23.7412H12.1607C16.3558 23.7412 19.8308 20.4107 19.8479 16.2553C19.8584 13.7087 18.5835 11.4509 16.6305 10.0829ZM4.43896 4.397H11.0629C12.2625 4.397 13.2385 5.36374 13.2385 6.55208C13.2385 7.74033 12.2626 8.70715 11.0629 8.70715H4.43896V4.397ZM12.2593 19.3442H4.43896V13.1042H11.0629H12.2592C13.996 13.1042 15.409 14.5038 15.409 16.2242C15.409 17.9445 13.9961 19.3442 12.2593 19.3442Z" transform="translate(0.352051)" fill="#0067FF"/>
<path d="M18.2065 9.3076C18.2065 4.17532 14.1229 -1.14009e-07 9.10327 -1.14009e-07C4.08367 -1.14009e-07 2.1973e-07 4.1754 2.1973e-07 9.3076C2.1973e-07 14.4398 4.08375 18.6153 9.10327 18.6153C12.1491 18.6153 14.9793 17.0686 16.674 14.4779C16.8853 14.1549 17.0772 13.8174 17.2475 13.4696C17.3711 13.2171 17.1836 12.9232 16.9002 12.9225L12.4254 12.9115C12.3264 12.9113 12.2325 12.9513 12.1615 13.0197C11.3165 13.8335 10.2806 14.2182 9.10327 14.2182C6.87937 14.2182 5.01514 12.5706 4.55108 10.3742H17.3157C17.8077 10.3742 18.2065 9.97912 18.2065 9.49176V9.3076ZM9.10327 4.397C10.732 4.397 12.1676 5.28113 13.0021 6.61686H5.20449C6.03893 5.28113 7.47458 4.397 9.10327 4.397Z" transform="translate(21.4414 5.38477)" fill="#0067FF"/>
<path d="M8.75629 3.35776H0.682126C0.305405 3.35776 -3.139e-07 3.05524 -3.139e-07 2.68208V0.675678C-3.139e-07 0.302518 0.305405 -1.91742e-07 0.682126 -1.91742e-07H8.75629C9.13301 -1.91742e-07 9.43842 0.302518 9.43842 0.675678V2.68208C9.43842 3.05533 9.13301 3.35776 8.75629 3.35776Z" transform="translate(25.5708 0.934326)" fill="#0067FF"/>
</g>
</svg>
