<svg width="25" height="24" viewBox="0 0 25 24" fill="none" xmlns="http://www.w3.org/2000/svg">
<g opacity="0.7">
<path d="M20.4003 0H3.17713C1.42249 0 0 1.44791 0 3.23405V20.7658C0 22.552 1.42243 23.9999 3.17713 23.9999H11.6715L11.686 15.4236H9.49708C9.21262 15.4236 8.98174 15.1895 8.98064 14.8999L8.97015 12.1354C8.96905 11.8443 9.20062 11.6077 9.48664 11.6077H11.6716V8.93651C11.6716 5.83661 13.5315 4.14869 16.2481 4.14869H18.4773C18.7625 4.14869 18.9938 4.38406 18.9938 4.67444V7.00547C18.9938 7.29573 18.7627 7.53104 18.4776 7.53122L17.1096 7.53187C15.6322 7.53187 15.3461 8.24648 15.3461 9.29522V11.6078H18.5924C18.9018 11.6078 19.1418 11.8827 19.1053 12.1954L18.7834 14.9599C18.7526 15.2244 18.5322 15.4237 18.2706 15.4237H15.3606L15.3461 24H20.4004C22.155 24 23.5775 22.5521 23.5775 20.766V3.23405C23.5774 1.44791 22.155 0 20.4003 0Z" transform="translate(0.676025)" fill="#475993"/>
</g>
</svg>
