<svg width="24" height="24" viewBox="0 0 24 24" fill="none" xmlns="http://www.w3.org/2000/svg">
<g opacity="0.7">
<path d="M21.4447 0H2.13277C0.954887 0 0 0.972 0 2.17099V21.8289C0 23.028 0.954887 24 2.13277 24H21.4446C22.6226 24 23.5775 23.028 23.5775 21.8289V2.17099C23.5775 0.972 22.6226 0 21.4447 0ZM7.29587 20.7232C7.29587 21.0721 7.018 21.355 6.6752 21.355H4.03317C3.69037 21.355 3.4125 21.0721 3.4125 20.7232V9.4494C3.4125 9.10046 3.69037 8.81761 4.03317 8.81761H6.6752C7.018 8.81761 7.29587 9.10046 7.29587 9.4494V20.7232ZM5.35418 7.75489C3.96799 7.75489 2.84423 6.61099 2.84423 5.19996C2.84423 3.78892 3.96799 2.64503 5.35418 2.64503C6.74038 2.64503 7.86413 3.78892 7.86413 5.19996C7.86413 6.61099 6.74044 7.75489 5.35418 7.75489ZM21.1031 20.7741C21.1031 21.0949 20.8475 21.355 20.5324 21.355H17.6973C17.3821 21.355 17.1266 21.0949 17.1266 20.7741V15.486C17.1266 14.6972 17.3539 12.0292 15.1014 12.0292C13.3541 12.0292 12.9997 13.8554 12.9285 14.6749V20.7741C12.9285 21.0949 12.6731 21.355 12.3579 21.355H9.61584C9.30069 21.355 9.04517 21.0949 9.04517 20.7741V9.39851C9.04517 9.07772 9.30069 8.81761 9.61584 8.81761H12.3579C12.673 8.81761 12.9285 9.07772 12.9285 9.39851V10.3821C13.5764 9.39236 14.5393 8.62844 16.5893 8.62844C21.129 8.62844 21.1031 12.9457 21.1031 15.3178V20.7741Z" fill="#0077B7"/>
</g>
</svg>
