<svg width="24" height="22" viewBox="0 0 24 22" fill="none" xmlns="http://www.w3.org/2000/svg">
<g opacity="0.7">
<path d="M7.31623 21.132L0.0547017 17.4097L3.18729e-06 0.53614C-0.00125495 0.142237 0.384392 -0.117321 0.717318 0.0533752L7.60158 3.5833C7.77491 3.67217 7.88514 3.85915 7.88514 4.06422V20.7506C7.88508 21.0624 7.57972 21.2671 7.31623 21.132Z" transform="translate(16.1147 0.492188)" fill="#00FD8D"/>
<path d="M7.85914 17.5686L2.19401e-07 13.5394L7.56605 0.256674C7.69972 0.0220313 7.9786 -0.0661915 8.21064 0.052759L15.1911 3.63207C15.458 3.76891 15.5557 4.12148 15.4014 4.39094L7.85914 17.5686Z" transform="translate(8.31055 0.333252)" fill="#00E470"/>
<path d="M15.1217 17.1638L7.26252 13.1346L0.0588727 0.626376C-0.14183 0.277893 0.207392 -0.134729 0.553019 0.0424831L7.26252 3.48278L15.1217 17.1638Z" transform="translate(1.04785 0.738037)" fill="#00C967"/>
<path d="M7.31898 21.2063L0.224906 17.5688C0.0874103 17.4982 0 17.35 0 17.1873V0.410385C0 0.108473 0.295781 -0.0898843 0.551002 0.0410124L7.8879 3.80303V20.8248C7.8879 21.1366 7.58247 21.3414 7.31898 21.2063Z" transform="translate(0.422607 0.418213)" fill="#00AD6C"/>
</g>
</svg>
