<svg width="25" height="24" viewBox="0 0 25 24" fill="none" xmlns="http://www.w3.org/2000/svg">
<g opacity="0.7">
<path d="M11.2124 0.0138795C4.93486 0.315677 -0.0189889 5.59432 5.47203e-05 11.9399C0.00585308 13.8726 0.46796 15.6968 1.28314 17.3086L0.0315478 23.4429C-0.0361566 23.7747 0.260242 24.0652 0.586712 23.9872L6.53987 22.5631C8.06933 23.3323 9.78723 23.7766 11.6054 23.8047C18.0216 23.9036 23.3716 18.7596 23.5716 12.2836C23.786 5.34171 18.1116 -0.317879 11.2124 0.0138795ZM18.3158 18.4934C16.5723 20.2537 14.2543 21.2231 11.7887 21.2231C10.3451 21.2231 8.9629 20.8961 7.68049 20.2511L6.85144 19.8341L3.20155 20.7072L3.96983 16.9416L3.56138 16.134C2.89565 14.8176 2.5581 13.394 2.5581 11.903C2.5581 9.4135 3.51824 7.07305 5.26167 5.31266C6.98952 3.56806 9.34536 2.58283 11.7889 2.58283C14.2545 2.58289 16.5724 3.55233 18.3158 5.31261C20.0593 7.07294 21.0194 9.41339 21.0195 11.9028C21.0194 14.3701 20.0436 16.7488 18.3158 18.4934Z" transform="translate(0.746582)" fill="#7AD06D"/>
<path d="M11.661 8.31887L9.37757 7.65685C9.07737 7.56983 8.75408 7.65582 8.53533 7.88087L7.97693 8.45531C7.74147 8.69753 7.38419 8.77536 7.07256 8.64805C5.99235 8.20666 3.72008 6.16675 3.13979 5.14639C2.97238 4.85205 3.00006 4.48407 3.20562 4.21551L3.69313 3.57868C3.88414 3.32918 3.92444 2.99409 3.79813 2.70566L2.83742 0.511751C2.60731 -0.0137248 1.94226 -0.16669 1.50778 0.204329C0.870471 0.748574 0.114296 1.57562 0.0223749 2.49186C-0.139695 4.10726 0.546444 6.14362 3.1411 8.58876C6.13862 11.4136 8.53903 11.7868 10.1019 11.4045C10.9884 11.1877 11.6968 10.3186 12.1439 9.60699C12.4487 9.12181 12.208 8.47746 11.661 8.31887Z" transform="translate(6.59546 6.16553)" fill="#7AD06D"/>
</g>
</svg>
