<?xml version="1.0" encoding="UTF-8" standalone="no"?>
<svg
   xmlns:dc="http://purl.org/dc/elements/1.1/"
   xmlns:cc="http://creativecommons.org/ns#"
   xmlns:rdf="http://www.w3.org/1999/02/22-rdf-syntax-ns#"
   xmlns:svg="http://www.w3.org/2000/svg"
   xmlns="http://www.w3.org/2000/svg"
   xmlns:sodipodi="http://sodipodi.sourceforge.net/DTD/sodipodi-0.dtd"
   xmlns:inkscape="http://www.inkscape.org/namespaces/inkscape"
   viewBox="0 -256 1792 1792"
   id="svg2"
   version="1.1"
   inkscape:version="0.48.3.1 r9886"
   width="100%"
   height="100%"
   sodipodi:docname="pushpin_font_awesome.svg">
  <metadata
     id="metadata12">
    <rdf:RDF>
      <cc:Work
         rdf:about="">
        <dc:format>image/svg+xml</dc:format>
        <dc:type
           rdf:resource="http://purl.org/dc/dcmitype/StillImage" />
      </cc:Work>
    </rdf:RDF>
  </metadata>
  <defs
     id="defs10" />
  <sodipodi:namedview
     pagecolor="#ffffff"
     bordercolor="#666666"
     borderopacity="1"
     objecttolerance="10"
     gridtolerance="10"
     guidetolerance="10"
     inkscape:pageopacity="0"
     inkscape:pageshadow="2"
     inkscape:window-width="640"
     inkscape:window-height="480"
     id="namedview8"
     showgrid="false"
     inkscape:zoom="0.13169643"
     inkscape:cx="896"
     inkscape:cy="896"
     inkscape:window-x="0"
     inkscape:window-y="25"
     inkscape:window-maximized="0"
     inkscape:current-layer="svg2" />
  <g
     transform="matrix(1,0,0,-1,318.91525,1209.4915)"
     id="g4">
    <path
       d="m 480,672 v 448 q 0,14 -9,23 -9,9 -23,9 -14,0 -23,-9 -9,-9 -9,-23 V 672 q 0,-14 9,-23 9,-9 23,-9 14,0 23,9 9,9 9,23 z m 672,-352 q 0,-26 -19,-45 -19,-19 -45,-19 H 659 l -51,-483 q -2,-12 -10.5,-20.5 Q 589,-256 577,-256 h -1 q -27,0 -32,27 L 468,256 H 64 Q 38,256 19,275 0,294 0,320 0,443 78.5,541.5 157,640 256,640 v 512 q -52,0 -90,38 -38,38 -38,90 0,52 38,90 38,38 90,38 h 640 q 52,0 90,-38 38,-38 38,-90 0,-52 -38,-90 -38,-38 -90,-38 V 640 q 99,0 177.5,-98.5 Q 1152,443 1152,320 z"
       id="path6"
       inkscape:connector-curvature="0"
       style="fill:currentColor" />
  </g>
</svg>
